<svg width="300" height="300" viewBox="0 0 102 102" xmlns="http://www.w3.org/2000/svg" xmlns:xlink="http://www.w3.org/1999/xlink" style="background:#fff"><defs><path id="path-1" d="M0 0h102v102H0z"/><path id="path-3" d="M0 0h94.948v42.687H0z"/></defs><g  fill="none" fill-rule="evenodd"><path fill="#FFF" d="M0 0h102v102H0z"/><g id="Group-7"><g id="Group-3"><mask id="mask-2" fill="#fff"><use xlink:href="#path-1"/></mask><path d="M38.382 15.52h-3.168l-.95 7.738c-.26 2.128-1.686 3.375-3.504 3.375-1.868 0-2.787-1.196-2.525-3.324l.956-7.79h-3.14l-1.07 8.724c-.393 3.193 1.143 5.27 4.233 5.27 2.128 0 3.537-1.117 4.58-2.414l-.262 2.128H36.7l1.684-13.708zM7.052 29.228h8.41c4.05 0 6.938-1.74 7.337-4.984l.005-.052c.303-2.467-1.027-3.687-3.066-4.414 1.433-.7 2.824-1.87 3.092-4.05l.007-.052c.148-1.22-.146-2.207-.852-3.01-.91-1.04-2.477-1.61-4.553-1.61H9.283l-2.23 18.172zm32.146 4.155h3.142l.772-6.283c.804 1.272 2.09 2.414 4.375 2.414 3.246 0 6.677-2.57 7.235-7.114l.006-.05c.56-4.57-2.268-7.115-5.488-7.115-2.23 0-3.8 1.142-4.987 2.57l.28-2.285h-3.14l-2.195 17.863zm22.646-3.87c2.23 0 3.8-1.14 4.988-2.57l-.28 2.285h3.14l1.684-13.708h-3.14l-.263 2.13c-.826-1.3-2.117-2.415-4.376-2.415-3.27 0-6.676 2.57-7.234 7.114l-.006.05c-.56 4.544 2.267 7.114 5.487 7.114zm-23.672 12.17l-.346 2.83h25.312c5.286 0 8.262-2.83 9.798-4.855l3.108 5.735a1.414 1.414 0 0 0 2.618-.34l6.37-27.88L88.01 50.95a1.653 1.653 0 0 0 3.13.594l4.788-9.932c.9 1.39 2.3 2.9 4.43 2.9H102V102H0V0h102v41.684h-1.642c-1.278 0-2.26-1.89-2.787-2.906-.27-.52-.447-.862-.72-1.126a1.414 1.414 0 0 0-2.235.363l-4.167 8.904-3.215-35.51a1.815 1.815 0 0 0-3.568-.248l-6.882 29.656-2.466-4.55a1.416 1.416 0 0 0-2.024-.506c-.316.21-.476.47-.74.896-.852 1.375-3.114 5.026-8.415 5.026H38.172zm24.76-14.895c2.1 0 4.188-1.765 4.51-4.388l.006-.05c.326-2.65-1.33-4.39-3.433-4.39-2.154 0-4.15 1.663-4.484 4.39l-.006.05c-.325 2.65 1.28 4.388 3.407 4.388zm-15.863 0c2.154 0 4.127-1.688 4.458-4.388l.007-.05c.325-2.65-1.253-4.39-3.38-4.39-2.13 0-4.216 1.767-4.538 4.39l-.006.05c-.32 2.623 1.33 4.388 3.46 4.388zm-27.422-2.883l.006-.05c.188-1.532-.92-2.44-3.44-2.44h-5.062L10.54 26.4h5.296c2.18 0 3.61-.857 3.812-2.495zm-3.803-5.19h-4.36l.593-4.83h4.594c2.05 0 3.086.883 2.91 2.31l-.007.052c-.204 1.662-1.68 2.467-3.73 2.467z" id="Fill-1" fill="#0079C8" mask="url(#mask-2)"/></g><g id="Group-6" transform="translate(7.052 9.778)"><mask id="mask-4" fill="#fff"><use xlink:href="#path-3"/></mask><path d="M40.017 17.01c2.155 0 4.128-1.687 4.46-4.387l.006-.052c.325-2.648-1.253-4.387-3.38-4.387-2.13 0-4.216 1.765-4.538 4.388l-.006.053c-.323 2.622 1.33 4.387 3.457 4.387zm-4.73 6.595h-3.14L34.34 5.743h3.142l-.28 2.285c1.186-1.43 2.756-2.57 4.987-2.57 3.218 0 6.047 2.543 5.486 7.113l-.006.053c-.558 4.544-3.99 7.113-7.235 7.113-2.284 0-3.57-1.142-4.374-2.414l-.772 6.283zM28.163 5.743l-.95 7.736c-.26 2.128-1.685 3.375-3.504 3.375-1.868 0-2.787-1.195-2.526-3.323l.958-7.79H19l-1.073 8.724c-.39 3.194 1.144 5.27 4.233 5.27 2.13 0 3.538-1.116 4.58-2.414l-.26 2.13h3.167L31.33 5.74h-3.168zm-19 5.893H4.1l-.61 4.985h5.294c2.18 0 3.61-.856 3.812-2.492l.005-.052c.19-1.53-.92-2.44-3.437-2.44zm-4.73-2.7h4.36c2.052 0 3.527-.805 3.73-2.467l.007-.052c.176-1.428-.86-2.31-2.91-2.31H5.026l-.594 4.828zM12.687 10c2.04.728 3.37 1.947 3.066 4.414l-.006.052c-.4 3.245-3.287 4.985-7.336 4.985H0L2.23 1.278h8.153c2.076 0 3.64.572 4.553 1.61.705.805 1 1.792.85 3.012l-.006.05c-.268 2.18-1.658 3.35-3.093 4.05zm43.192 7.01c2.102 0 4.188-1.765 4.51-4.387l.005-.052c.327-2.648-1.328-4.387-3.432-4.387-2.155 0-4.15 1.66-4.484 4.388l-.008.053c-.326 2.647 1.28 4.387 3.407 4.387zm-6.575-4.387l.006-.052c.56-4.542 3.964-7.113 7.235-7.113 2.26 0 3.55 1.115 4.376 2.414l.262-2.127h3.143L62.64 19.45H59.5l.28-2.283c-1.188 1.427-2.756 2.57-4.988 2.57-3.22 0-6.045-2.57-5.487-7.114zm45.643 19.283v2.83h-1.642c-2.13 0-3.53-1.512-4.43-2.902l-4.788 9.933a1.653 1.653 0 0 1-3.13-.596L77.983 7.396l-6.372 27.88a1.414 1.414 0 0 1-2.617.34l-3.11-5.734c-1.535 2.025-4.512 4.855-9.798 4.855h-25.31l.344-2.83h24.965c5.302 0 7.564-3.65 8.415-5.025.265-.427.424-.685.74-.895a1.414 1.414 0 0 1 2.024.506l2.466 4.548 6.884-29.656a1.815 1.815 0 0 1 3.566.25l3.217 35.507 4.167-8.903a1.415 1.415 0 0 1 2.234-.363c.274.263.452.606.722 1.126.528 1.015 1.507 2.906 2.786 2.906h1.642z" id="Fill-4" fill="#FFF" mask="url(#mask-4)"/></g></g></g></svg>
