<svg viewBox="0 0 98 26" fill="none" xmlns="http://www.w3.org/2000/svg" class="w-[130px] md:w-[125px]">
    <title>Healix</title>
    <path d="M65.2555 23.5799C63.9951 23.5799 64.0266 22.8904 64.0266 21.3693V12.5187C64.0266 8.56815 60.8938 6.24878 56.0284 6.24878C51.1629 6.24878 48.2705 8.96726 48.2705 12.5187H52.0107V12.5092H52.0183C52.1183 10.5928 52.973 8.18043 56.0284 8.18043C58.8523 8.18043 59.9787 9.37838 60.2014 11.1658C60.2504 11.5592 60.2309 11.9602 60.107 12.3366C59.5108 14.1474 57.0177 14.7919 54.1623 15.2037C50.4145 15.7476 47.5164 17.0885 47.5164 20.6033C47.5164 21.9208 48.0044 23.2155 48.8988 24.182C49.8749 25.237 51.2057 25.7696 52.6095 25.9321C52.9724 25.9745 53.3378 25.9947 53.7032 25.9992C55.8278 26.0251 58.0429 25.5084 59.6152 23.9897C59.8272 23.7854 60.0272 23.5679 60.2039 23.3319C60.4423 23.0138 60.5398 22.8455 60.6026 22.7412H60.7108C60.7108 24.9518 62.1882 25.867 63.9907 25.867C64.6543 25.867 65.2455 25.7595 65.8687 25.5792V23.4768C65.6668 23.5426 65.4725 23.5799 65.2555 23.5799ZM55.0573 17.0601C58.4901 16.4662 59.5875 15.8425 60.2448 15.1006V18.2277C60.2448 20.4174 58.6926 24.0049 54.6554 24.0049C52.69 24.0049 51.2912 23.0454 51.2912 20.8848C51.2912 19.196 52.168 17.6129 55.0579 17.062V17.0607H55.0573V17.0601Z" fill="currentColor"></path>
    <path d="M79.4846 0H75.7412V3.31239H79.4846V0Z" fill="#223F3B"></path>
    <path d="M72.1307 0H68.3533L68.5174 9.95236V11.5235L68.3533 25.4511H72.1307L71.9665 11.5235V9.95236L72.1307 0Z" fill="#223F3B"></path>
    <path d="M79.507 6.66455H75.7303L75.8843 9.95228V11.5234L75.729 25.451H79.507L79.3523 11.5234V9.95228L79.5077 6.66455H79.507Z" fill="#223F3B"></path>
    <path d="M45.3298 16.1043C45.3298 10.5598 42.4065 6.24683 36.6404 6.24683C30.8743 6.24683 27.4844 10.5598 27.4844 16.1043C27.4844 22.2655 31.2712 25.9985 36.8574 25.9985C41.7229 25.9985 45.3298 22.9903 45.3298 19.7285H41.5682C41.5682 21.6488 40.1361 24.0694 36.9297 24.0694C33.2178 24.0694 31.4712 21.9676 31.2542 16.9664H45.3298V16.1043ZM36.6404 8.17721C38.6015 8.17721 40.0109 9.06713 40.8115 11.0488C41.2097 12.1246 41.4688 13.4782 41.5581 15.0556H31.2593C31.353 13.4788 31.6894 12.1246 32.1473 11.0488C33.0681 9.06713 34.6568 8.17721 36.6404 8.17721Z" fill="#223F3B"></path>
    <path d="M92.1012 16.0274L98 6.66455H94.222L90.2156 13.6334L86.1911 6.66455H82.4118L88.342 16.0274L82.4067 25.4504H86.1879L90.2156 18.4107L94.2201 25.4504H97.9987L92.1012 16.0274Z" fill="currentColor"></path>
    <path d="M18.6807 11.1705C18.4644 11.0333 17.9612 10.7221 17.6631 10.5639C14.3977 8.89478 10.8719 8.15792 7.82278 8.19651C4.3152 8.24078 1.43844 9.29009 0.317045 10.7626C-1.06724 12.5797 2.29065 15.0079 6.33094 15.0395C7.63158 15.0496 8.84983 15.1021 9.86179 14.9554C13.8757 14.3747 15.8228 12.791 16.4813 12.3685C19.5518 14.8377 21.5323 18.1893 21.6021 25.2145L24.5858 23.0741C24.5814 18.9901 23.7242 16.1198 21.8606 13.8833C21.0135 12.8669 19.9587 11.9807 18.6807 11.1711V11.1705ZM8.35486 12.8858C3.76613 12.9953 1.22397 11.8669 1.97115 10.815C2.63153 9.88654 5.03407 9.1617 7.72466 9.15727C10.2454 9.15284 13.2071 9.78091 15.0379 11.2325C13.9398 11.7056 11.1932 12.8182 8.35486 12.8858Z" fill="#223F3B"></path>
    <path d="M25.3629 0.013916H21.5842L21.7484 9.91441V11.4874L21.5842 25.4941H25.3629L25.1987 11.4874V9.91441L25.3629 0.013916Z" fill="#223F3B"></path>
    <path d="M9.88607 0.013916H6.10742L6.27157 9.91694V11.49L6.10742 25.5004H9.88607L9.72192 11.49V9.91694L9.88607 0.013916Z" fill="#223F3B"></path>
    <path d="M18.0492 10.8202C18.5461 10.3047 19.1052 9.10297 19.3259 8.53119L18.5524 8.20166C18.0957 9.08147 17.37 9.84742 16.9045 10.1978C17.0278 10.2668 17.9064 10.7468 18.0498 10.8202H18.0492Z" fill="currentColor"></path>
</svg>
