<?xml version="1.0" encoding="UTF-8"?>
<!DOCTYPE svg PUBLIC "-//W3C//DTD SVG 1.1//EN" "http://www.w3.org/Graphics/SVG/1.1/DTD/svg11.dtd">
<svg xmlns="http://www.w3.org/2000/svg" version="1.1" width="352px" height="204px" style="shape-rendering:geometricPrecision; text-rendering:geometricPrecision; image-rendering:optimizeQuality; fill-rule:evenodd; clip-rule:evenodd" xmlns:xlink="http://www.w3.org/1999/xlink">
<g><path style="opacity:1" fill="#fefefe" d="M -0.5,-0.5 C 116.5,-0.5 233.5,-0.5 350.5,-0.5C 350.5,67.5 350.5,135.5 350.5,203.5C 233.5,203.5 116.5,203.5 -0.5,203.5C -0.5,135.5 -0.5,67.5 -0.5,-0.5 Z"/></g>
<g><path style="opacity:1" fill="#72aacc" d="M 75.5,68.5 C 70.5,68.5 65.5,68.5 60.5,68.5C 59.609,69.1098 58.609,69.4431 57.5,69.5C 57.7911,68.3509 58.6244,67.6842 60,67.5C 65.4178,65.9778 70.5844,66.3111 75.5,68.5 Z"/></g>
<g><path style="opacity:1" fill="#aed1e5" d="M 75.5,68.5 C 78.3126,68.0246 80.3126,69.0246 81.5,71.5C 81.1667,71.5 80.8333,71.5 80.5,71.5C 78.8869,70.3077 77.2202,69.3077 75.5,68.5 Z"/></g>
<g><path style="opacity:1" fill="#4188bb" d="M 60.5,68.5 C 64.7675,68.8693 68.7675,69.8693 72.5,71.5C 70.3825,70.9861 68.2159,70.6527 66,70.5C 64.0145,70.5687 62.5145,71.2353 61.5,72.5C 58.284,72.3455 55.6174,73.3455 53.5,75.5C 50.6416,77.1241 49.9749,76.4574 51.5,73.5C 52.4647,70.6803 54.4647,69.3469 57.5,69.5C 58.609,69.4431 59.609,69.1098 60.5,68.5 Z"/></g>
<g><path style="opacity:1" fill="#1e77b4" d="M 60.5,68.5 C 65.5,68.5 70.5,68.5 75.5,68.5C 77.2202,69.3077 78.8869,70.3077 80.5,71.5C 79.791,72.404 78.791,72.7373 77.5,72.5C 75.9582,71.6993 74.2915,71.366 72.5,71.5C 68.7675,69.8693 64.7675,68.8693 60.5,68.5 Z"/></g>
<g><path style="opacity:1" fill="#7dadce" d="M 72.5,71.5 C 74.2915,71.366 75.9582,71.6993 77.5,72.5C 77.8333,73.1667 78.1667,73.8333 78.5,74.5C 76.4418,73.0669 74.1085,72.4003 71.5,72.5C 70.8333,72.5 70.1667,72.5 69.5,72.5C 66.9741,71.3433 64.3074,71.3433 61.5,72.5C 62.5145,71.2353 64.0145,70.5687 66,70.5C 68.2159,70.6527 70.3825,70.9861 72.5,71.5 Z"/></g>
<g><path style="opacity:1" fill="#d7e5ef" d="M 69.5,72.5 C 64.0781,73.0649 58.7448,74.0649 53.5,75.5C 55.6174,73.3455 58.284,72.3455 61.5,72.5C 64.3074,71.3433 66.9741,71.3433 69.5,72.5 Z"/></g>
<g><path style="opacity:1" fill="#d4eaf2" d="M 71.5,72.5 C 74.1085,72.4003 76.4418,73.0669 78.5,74.5C 80.8835,75.8851 82.5501,77.8851 83.5,80.5C 82.8826,80.3893 82.3826,80.056 82,79.5C 81.8265,83.5408 81.3265,87.5408 80.5,91.5C 79.646,92.5217 78.646,93.3551 77.5,94C 74.854,94.4974 72.1873,94.6641 69.5,94.5C 68.8333,94.5 68.1667,94.5 67.5,94.5C 66.8333,94.5 66.5,94.1667 66.5,93.5C 78.5412,95.0615 82.8746,90.0615 79.5,78.5C 78.5,78.5 77.5,78.5 76.5,78.5C 76.5,77.5 76.5,76.5 76.5,75.5C 74.1667,75.5 71.8333,75.5 69.5,75.5C 70.9516,74.6981 72.6183,74.1981 74.5,74C 73.2625,73.7679 72.2625,73.2679 71.5,72.5 Z"/></g>
<g><path style="opacity:1" fill="#3e88bc" d="M 80.5,71.5 C 80.8333,71.5 81.1667,71.5 81.5,71.5C 82.853,72.5261 83.853,73.8595 84.5,75.5C 84.427,77.0269 85.0937,78.0269 86.5,78.5C 86.5,79.5 86.5,80.5 86.5,81.5C 85.6787,84.6414 85.1787,87.9748 85,91.5C 84.6174,92.056 84.1174,92.3893 83.5,92.5C 84.7263,88.367 84.7263,84.367 83.5,80.5C 82.5501,77.8851 80.8835,75.8851 78.5,74.5C 78.1667,73.8333 77.8333,73.1667 77.5,72.5C 78.791,72.7373 79.791,72.404 80.5,71.5 Z"/></g>
<g><path style="opacity:1" fill="#77a8c7" d="M 51.5,73.5 C 49.9749,76.4574 50.6416,77.1241 53.5,75.5C 52.1667,76.9335 50.6667,78.2668 49,79.5C 48.0387,76.6248 48.872,74.6248 51.5,73.5 Z"/></g>
<g><path style="opacity:1" fill="#80b0d0" d="M 84.5,75.5 C 85.9063,75.9731 86.573,76.9731 86.5,78.5C 85.0937,78.0269 84.427,77.0269 84.5,75.5 Z"/></g>
<g><path style="opacity:1" fill="#c3e4ee" d="M 63.5,79.5 C 62.6314,81.717 62.298,84.0504 62.5,86.5C 62.1667,86.5 61.8333,86.5 61.5,86.5C 60.9898,83.6122 61.6565,81.2789 63.5,79.5 Z"/></g>
<g><path style="opacity:1" fill="#76add1" d="M 97.5,84.5 C 104.921,84.1095 112.254,84.6095 119.5,86C 120.252,86.6708 120.586,87.5041 120.5,88.5C 119.118,87.1995 117.452,86.3661 115.5,86C 109.843,85.5006 104.176,85.3339 98.5,85.5C 98.5,92.8333 98.5,100.167 98.5,107.5C 97.508,100.018 97.1746,92.3516 97.5,84.5 Z"/></g>
<g><path style="opacity:1" fill="#77add0" d="M 220.5,84.5 C 220.5,84.8333 220.5,85.1667 220.5,85.5C 215.13,85.3921 209.797,85.7255 204.5,86.5C 204.918,85.7784 205.584,85.2784 206.5,85C 211.155,84.5008 215.821,84.3342 220.5,84.5 Z"/></g>
<g><path style="opacity:1" fill="#77adcf" d="M 294.5,86.5 C 292.621,85.6586 290.621,85.3253 288.5,85.5C 288.771,87.3797 288.104,88.713 286.5,89.5C 287.038,87.8828 287.371,86.2161 287.5,84.5C 290.388,83.9898 292.721,84.6565 294.5,86.5 Z"/></g>
<g><path style="opacity:1" fill="#cee7f2" d="M 83.5,80.5 C 84.7263,84.367 84.7263,88.367 83.5,92.5C 83.7373,93.791 83.404,94.791 82.5,95.5C 82.9157,90.5068 83.2491,85.5068 83.5,80.5 Z"/></g>
<g><path style="opacity:1" fill="#2f81bb" d="M 270.5,85.5 C 271.434,86.5676 271.768,87.901 271.5,89.5C 268.833,89.5 266.167,89.5 263.5,89.5C 263.167,89.5 262.833,89.5 262.5,89.5C 265.028,88.8343 267.694,88.1676 270.5,87.5C 267.167,87.1667 263.833,86.8333 260.5,86.5C 256.761,86.5136 253.428,87.1803 250.5,88.5C 249.596,87.791 249.263,86.791 249.5,85.5C 256.5,85.5 263.5,85.5 270.5,85.5 Z"/></g>
<g><path style="opacity:1" fill="#0d6fb6" d="M 112.5,89.5 C 109.5,89.5 106.5,89.5 103.5,89.5C 102.527,91.9479 102.194,94.6146 102.5,97.5C 105.833,97.5 109.167,97.5 112.5,97.5C 113.167,98.1667 113.833,98.8333 114.5,99.5C 110.5,99.5 106.5,99.5 102.5,99.5C 102.5,102.167 102.5,104.833 102.5,107.5C 101.5,107.5 100.5,107.5 99.5,107.5C 99.5,100.5 99.5,93.5 99.5,86.5C 105.577,86.1959 111.577,86.6959 117.5,88C 118.554,89.3876 118.72,90.8876 118,92.5C 117.517,91.552 117.351,90.552 117.5,89.5C 115.833,89.5 114.167,89.5 112.5,89.5 Z"/></g>
<g><path style="opacity:1" fill="#1672b8" d="M 142.5,86.5 C 147.098,87.7204 148.432,90.3871 146.5,94.5C 145.512,95.795 144.512,97.1283 143.5,98.5C 141.015,99.2601 141.015,100.26 143.5,101.5C 144.248,103.332 145.248,104.999 146.5,106.5C 144.391,108.976 142.057,108.976 139.5,106.5C 138.139,104.15 136.806,101.816 135.5,99.5C 128.161,96.8337 125.495,99.5004 127.5,107.5C 126.5,107.5 125.5,107.5 124.5,107.5C 124.5,100.5 124.5,93.5 124.5,86.5C 130.5,86.5 136.5,86.5 142.5,86.5 Z"/></g>
<g><path style="opacity:1" fill="#327fbc" d="M 189.5,85.5 C 193.046,86.3851 195.712,88.3851 197.5,91.5C 197.5,94.8333 197.5,98.1667 197.5,101.5C 197.5,102.167 197.167,102.5 196.5,102.5C 196.066,88.3162 194.4,87.9829 191.5,101.5C 193.496,92.8395 190.162,88.8395 181.5,89.5C 181.167,89.5 180.833,89.5 180.5,89.5C 183.358,88.834 186.358,88.1674 189.5,87.5C 185.555,86.5091 181.555,86.1758 177.5,86.5C 177.806,89.3854 177.473,92.0521 176.5,94.5C 176.5,91.5 176.5,88.5 176.5,85.5C 180.833,85.5 185.167,85.5 189.5,85.5 Z"/></g>
<g><path style="opacity:1" fill="#026eb8" d="M 239.5,106.5 C 239.672,105.508 239.338,104.842 238.5,104.5C 237.833,102.181 237.666,99.8473 238,97.5C 238.236,99.1193 239.069,100.119 240.5,100.5C 240.706,102.549 241.539,102.883 243,101.5C 243.499,96.5111 243.666,91.5111 243.5,86.5C 244.5,86.5 245.5,86.5 246.5,86.5C 246.5,93.5 246.5,100.5 246.5,107.5C 244.097,107.552 241.764,107.219 239.5,106.5 Z"/></g>
<g><path style="opacity:1" fill="#006cb5" d="M 262.5,89.5 C 261.51,95.31 261.177,101.31 261.5,107.5C 260.5,107.5 259.5,107.5 258.5,107.5C 258.5,101.167 258.5,94.8333 258.5,88.5C 255.833,88.5 253.167,88.5 250.5,88.5C 253.428,87.1803 256.761,86.5136 260.5,86.5C 263.833,86.8333 267.167,87.1667 270.5,87.5C 267.694,88.1676 265.028,88.8343 262.5,89.5 Z"/></g>
<g><path style="opacity:1" fill="#9ac3dc" d="M 172.5,104.5 C 172.5,98.1667 172.5,91.8333 172.5,85.5C 170.833,85.5 169.167,85.5 167.5,85.5C 167.5,91.1667 167.5,96.8333 167.5,102.5C 167.167,102.5 166.833,102.5 166.5,102.5C 166.5,96.5 166.5,90.5 166.5,84.5C 168.833,84.5 171.167,84.5 173.5,84.5C 173.824,91.3543 173.491,98.021 172.5,104.5 Z"/></g>
<g><path style="opacity:1" fill="#297ab9" d="M 231.5,85.5 C 235.232,89.6939 238.232,94.3606 240.5,99.5C 240.5,99.8333 240.5,100.167 240.5,100.5C 239.069,100.119 238.236,99.1193 238,97.5C 237.666,99.8473 237.833,102.181 238.5,104.5C 237.833,103.833 237.167,103.167 236.5,102.5C 236.573,100.973 235.906,99.9731 234.5,99.5C 234.573,97.9731 233.906,96.9731 232.5,96.5C 232.167,95.8333 231.833,95.1667 231.5,94.5C 231.44,93.9569 231.107,93.6236 230.5,93.5C 229.506,98.456 229.173,103.456 229.5,108.5C 227.833,108.5 226.167,108.5 224.5,108.5C 224.5,100.833 224.5,93.1667 224.5,85.5C 226.833,85.5 229.167,85.5 231.5,85.5 Z"/></g>
<g><path style="opacity:1" fill="#5093c1" d="M 220.5,85.5 C 221.434,86.5676 221.768,87.901 221.5,89.5C 217.167,89.5 212.833,89.5 208.5,89.5C 212.298,88.5166 216.298,88.1832 220.5,88.5C 220.5,87.5 220.5,86.5 220.5,85.5 Z"/></g>
<g><path style="opacity:1" fill="#d6e8f1" d="M 278.5,84.5 C 279.328,90.3193 279.828,96.3193 280,102.5C 280.383,101.944 280.883,101.611 281.5,101.5C 281.167,102.833 280.833,104.167 280.5,105.5C 278.539,98.9131 277.872,91.9131 278.5,84.5 Z"/></g>
<g><path style="opacity:1" fill="#59b4dc" d="M 69.5,75.5 C 71.8333,75.5 74.1667,75.5 76.5,75.5C 76.5,76.5 76.5,77.5 76.5,78.5C 77.5,78.5 78.5,78.5 79.5,78.5C 82.8746,90.0615 78.5412,95.0615 66.5,93.5C 66.1788,91.9519 65.1788,91.2852 63.5,91.5C 63.634,89.7085 63.3007,88.0418 62.5,86.5C 62.298,84.0504 62.6314,81.717 63.5,79.5C 64.404,78.791 64.7373,77.791 64.5,76.5C 66.4147,76.7845 68.0813,76.4511 69.5,75.5 Z"/></g>
<g><path style="opacity:1" fill="#eaf6f9" d="M 68.5,79.5 C 76.4902,79.0859 78.4902,82.2525 74.5,89C 66.424,89.8047 64.424,86.638 68.5,79.5 Z"/></g>
<g><path style="opacity:1" fill="#a5cb70" d="M 61.5,86.5 C 61.6427,88.2624 61.3094,89.9291 60.5,91.5C 61.9492,92.1719 63.2825,92.8386 64.5,93.5C 61.9242,93.4679 59.5909,94.1346 57.5,95.5C 57.2381,93.4362 56.0714,92.1029 54,91.5C 53.1739,84.7669 55.6739,83.1002 61.5,86.5 Z"/></g>
<g><path style="opacity:1" fill="#d1e8b3" d="M 56.5,87.5 C 58.337,87.6395 58.6704,88.3061 57.5,89.5C 56.7025,89.0431 56.3691,88.3764 56.5,87.5 Z"/></g>
<g><path style="opacity:1" fill="#2077b9" d="M 120.5,88.5 C 121.468,90.6074 121.802,92.9407 121.5,95.5C 119.833,96.8333 118.167,98.1667 116.5,99.5C 115.833,99.5 115.167,99.5 114.5,99.5C 113.833,98.8333 113.167,98.1667 112.5,97.5C 112.5,96.8333 112.5,96.1667 112.5,95.5C 115.019,93.6409 115.019,91.6409 112.5,89.5C 114.167,89.5 115.833,89.5 117.5,89.5C 117.351,90.552 117.517,91.552 118,92.5C 118.72,90.8876 118.554,89.3876 117.5,88C 111.577,86.6959 105.577,86.1959 99.5,86.5C 99.5,93.5 99.5,100.5 99.5,107.5C 99.1667,107.5 98.8333,107.5 98.5,107.5C 98.5,100.167 98.5,92.8333 98.5,85.5C 104.176,85.3339 109.843,85.5006 115.5,86C 117.452,86.3661 119.118,87.1995 120.5,88.5 Z"/></g>
<g><path style="opacity:1" fill="#eef7fa" d="M 103.5,89.5 C 106.5,89.5 109.5,89.5 112.5,89.5C 115.019,91.6409 115.019,93.6409 112.5,95.5C 109.5,95.5 106.5,95.5 103.5,95.5C 103.5,93.5 103.5,91.5 103.5,89.5 Z"/></g>
<g><path style="opacity:1" fill="#ecf6fa" d="M 138.5,89.5 C 138.833,90.1667 139.167,90.8333 139.5,91.5C 139.167,92.8333 138.833,94.1667 138.5,95.5C 138.167,95.5 137.833,95.5 137.5,95.5C 134.833,95.5 132.167,95.5 129.5,95.5C 129.5,93.5 129.5,91.5 129.5,89.5C 132.5,89.5 135.5,89.5 138.5,89.5 Z"/></g>
<g><path style="opacity:1" fill="#f1f8fa" d="M 181.5,89.5 C 190.162,88.8395 193.496,92.8395 191.5,101.5C 190.5,102.167 189.5,102.833 188.5,103.5C 186.167,103.5 183.833,103.5 181.5,103.5C 181.5,98.8333 181.5,94.1667 181.5,89.5 Z"/></g>
<g><path style="opacity:1" fill="#fbfdfd" d="M 208.5,90.5 C 213.167,90.5 217.833,90.5 222.5,90.5C 222.5,91.5 222.5,92.5 222.5,93.5C 217.5,93.5 212.5,93.5 207.5,93.5C 207.557,92.391 207.89,91.391 208.5,90.5 Z"/></g>
<g><path style="opacity:1" fill="#0370ba" d="M 225.5,86.5 C 227.167,86.5 228.833,86.5 230.5,86.5C 230.64,88.1238 229.973,89.2904 228.5,90C 229.328,90.9147 230.328,91.5814 231.5,92C 230.552,92.4828 229.552,92.6495 228.5,92.5C 228.5,97.5 228.5,102.5 228.5,107.5C 227.5,107.5 226.5,107.5 225.5,107.5C 225.5,100.5 225.5,93.5 225.5,86.5 Z"/></g>
<g><path style="opacity:1" fill="#89b9d6" d="M 270.5,84.5 C 270.5,84.8333 270.5,85.1667 270.5,85.5C 263.5,85.5 256.5,85.5 249.5,85.5C 249.263,86.791 249.596,87.791 250.5,88.5C 250.5,88.8333 250.5,89.1667 250.5,89.5C 249.508,89.3284 248.842,89.6618 248.5,90.5C 248.5,96.1667 248.5,101.833 248.5,107.5C 248.167,107.5 247.833,107.5 247.5,107.5C 247.5,100.167 247.5,92.8333 247.5,85.5C 245.833,85.5 244.167,85.5 242.5,85.5C 243.108,90.9443 242.442,95.9443 240.5,100.5C 240.5,100.167 240.5,99.8333 240.5,99.5C 241.487,94.6946 241.821,89.6946 241.5,84.5C 251.167,84.5 260.833,84.5 270.5,84.5 Z"/></g>
<g><path style="opacity:1" fill="#b1cfe2" d="M 248.5,90.5 C 248.842,89.6618 249.508,89.3284 250.5,89.5C 252.833,89.5 255.167,89.5 257.5,89.5C 257.5,95.8333 257.5,102.167 257.5,108.5C 259.167,108.5 260.833,108.5 262.5,108.5C 262.5,102.167 262.5,95.8333 262.5,89.5C 262.833,89.5 263.167,89.5 263.5,89.5C 263.5,97.5 263.5,105.5 263.5,113.5C 261.824,112.817 261.157,111.483 261.5,109.5C 259.901,109.232 258.568,109.566 257.5,110.5C 255.958,109.699 254.292,109.366 252.5,109.5C 253.568,108.566 254.901,108.232 256.5,108.5C 256.5,102.5 256.5,96.5 256.5,90.5C 253.833,90.5 251.167,90.5 248.5,90.5 Z"/></g>
<g><path style="opacity:1" fill="#9fc3de" d="M 295.5,88.5 C 296.906,88.9731 297.573,89.9731 297.5,91.5C 296.094,91.0269 295.427,90.0269 295.5,88.5 Z"/></g>
<g><path style="opacity:1" fill="#d2e8d4" d="M 61.5,86.5 C 61.8333,86.5 62.1667,86.5 62.5,86.5C 63.3007,88.0418 63.634,89.7085 63.5,91.5C 65.1788,91.2852 66.1788,91.9519 66.5,93.5C 65.8333,93.5 65.1667,93.5 64.5,93.5C 63.2825,92.8386 61.9492,92.1719 60.5,91.5C 61.3094,89.9291 61.6427,88.2624 61.5,86.5 Z"/></g>
<g><path style="opacity:1" fill="#a7cce1" d="M 286.5,89.5 C 286.573,91.0269 285.906,92.0269 284.5,92.5C 284.427,90.9731 285.094,89.9731 286.5,89.5 Z"/></g>
<g><path style="opacity:1" fill="#5c9fc8" d="M 155.5,101.5 C 154.512,96.3595 154.179,91.0262 154.5,85.5C 153.167,85.5 151.833,85.5 150.5,85.5C 150.5,91.1667 150.5,96.8333 150.5,102.5C 149.51,96.69 149.177,90.69 149.5,84.5C 151.5,84.5 153.5,84.5 155.5,84.5C 155.5,90.1667 155.5,95.8333 155.5,101.5 Z"/></g>
<g><path style="opacity:1" fill="#0d70b7" d="M 220.5,85.5 C 220.5,86.5 220.5,87.5 220.5,88.5C 216.298,88.1832 212.298,88.5166 208.5,89.5C 208.5,89.8333 208.5,90.1667 208.5,90.5C 206.259,91.2998 205.259,92.9664 205.5,95.5C 210.5,95.5 215.5,95.5 220.5,95.5C 221.833,96.5 221.833,97.5 220.5,98.5C 215.833,98.5 211.167,98.5 206.5,98.5C 206.263,99.791 206.596,100.791 207.5,101.5C 207.804,102.15 208.137,102.817 208.5,103.5C 212.445,104.491 216.445,104.824 220.5,104.5C 220.5,105.5 220.5,106.5 220.5,107.5C 215.5,107.5 210.5,107.5 205.5,107.5C 204.167,106.5 202.833,105.5 201.5,104.5C 201.428,101.807 201.095,99.1401 200.5,96.5C 201.162,92.8547 202.496,89.5213 204.5,86.5C 209.797,85.7255 215.13,85.3921 220.5,85.5 Z"/></g>
<g><path style="opacity:1" fill="#3083bb" d="M 250.5,89.5 C 250.5,89.1667 250.5,88.8333 250.5,88.5C 253.167,88.5 255.833,88.5 258.5,88.5C 258.5,94.8333 258.5,101.167 258.5,107.5C 259.5,107.5 260.5,107.5 261.5,107.5C 261.177,101.31 261.51,95.31 262.5,89.5C 262.5,95.8333 262.5,102.167 262.5,108.5C 260.833,108.5 259.167,108.5 257.5,108.5C 257.5,102.167 257.5,95.8333 257.5,89.5C 255.167,89.5 252.833,89.5 250.5,89.5 Z"/></g>
<g><path style="opacity:1" fill="#b1d7ea" d="M 270.5,85.5 C 270.5,85.1667 270.5,84.8333 270.5,84.5C 271.167,84.5 271.833,84.5 272.5,84.5C 272.5,84.8333 272.5,85.1667 272.5,85.5C 272.5,92.8333 272.5,100.167 272.5,107.5C 271.51,101.69 271.177,95.69 271.5,89.5C 271.768,87.901 271.434,86.5676 270.5,85.5 Z"/></g>
<g><path style="opacity:1" fill="#1773b7" d="M 294.5,86.5 C 295.338,86.8417 295.672,87.5084 295.5,88.5C 295.427,90.0269 296.094,91.0269 297.5,91.5C 297.833,92.8333 298.167,94.1667 298.5,95.5C 298.427,97.0269 299.094,98.0269 300.5,98.5C 300.833,99.8333 301.167,101.167 301.5,102.5C 302.038,104.117 302.371,105.784 302.5,107.5C 300.833,107.5 299.167,107.5 297.5,107.5C 297.5,106.833 297.5,106.167 297.5,105.5C 297.586,104.504 297.252,103.671 296.5,103C 292.973,102.192 289.64,102.359 286.5,103.5C 286.34,105.153 285.674,106.486 284.5,107.5C 282.517,107.843 281.183,107.176 280.5,105.5C 280.833,104.167 281.167,102.833 281.5,101.5C 281.5,101.167 281.5,100.833 281.5,100.5C 282.906,100.027 283.573,99.0269 283.5,97.5C 284.038,95.8828 284.371,94.2161 284.5,92.5C 285.906,92.0269 286.573,91.0269 286.5,89.5C 288.104,88.713 288.771,87.3797 288.5,85.5C 290.621,85.3253 292.621,85.6586 294.5,86.5 Z"/></g>
<g><path style="opacity:1" fill="#589dc8" d="M 189.5,85.5 C 185.167,85.5 180.833,85.5 176.5,85.5C 176.5,88.5 176.5,91.5 176.5,94.5C 176.5,98.8333 176.5,103.167 176.5,107.5C 181.5,107.5 186.5,107.5 191.5,107.5C 189.393,108.468 187.059,108.802 184.5,108.5C 181.5,108.5 178.5,108.5 175.5,108.5C 175.5,100.5 175.5,92.5 175.5,84.5C 180.363,84.1805 185.03,84.5139 189.5,85.5 Z"/></g>
<g><path style="opacity:1" fill="#74add2" d="M 180.5,89.5 C 180.833,89.5 181.167,89.5 181.5,89.5C 181.5,94.1667 181.5,98.8333 181.5,103.5C 183.833,103.5 186.167,103.5 188.5,103.5C 186.052,104.473 183.385,104.806 180.5,104.5C 180.5,99.5 180.5,94.5 180.5,89.5 Z"/></g>
<g><path style="opacity:1" fill="#62a2cb" d="M 292.5,93.5 C 291.391,93.5569 290.391,93.8902 289.5,94.5C 290.053,92.4482 291.053,92.1148 292.5,93.5 Z"/></g>
<g><path style="opacity:1" fill="#dbe9ca" d="M 67.5,94.5 C 68.1667,94.5 68.8333,94.5 69.5,94.5C 69.6641,97.1873 69.4974,99.854 69,102.5C 68.3292,103.252 67.4959,103.586 66.5,103.5C 68.6813,100.737 69.0146,97.737 67.5,94.5 Z"/></g>
<g><path style="opacity:1" fill="#65a5cb" d="M 139.5,91.5 C 140.853,93.1284 140.519,94.4617 138.5,95.5C 138.833,94.1667 139.167,92.8333 139.5,91.5 Z"/></g>
<g><path style="opacity:1" fill="#6baad2" d="M 208.5,90.5 C 207.89,91.391 207.557,92.391 207.5,93.5C 211.833,94.1667 216.167,94.8333 220.5,95.5C 215.5,95.5 210.5,95.5 205.5,95.5C 205.259,92.9664 206.259,91.2998 208.5,90.5 Z"/></g>
<g><path style="opacity:1" fill="#8dbad7" d="M 272.5,85.5 C 272.5,85.1667 272.5,84.8333 272.5,84.5C 274.5,84.5 276.5,84.5 278.5,84.5C 277.872,91.9131 278.539,98.9131 280.5,105.5C 281.183,107.176 282.517,107.843 284.5,107.5C 284.167,108.5 283.5,109.167 282.5,109.5C 281.041,109.433 279.708,109.766 278.5,110.5C 276.5,109.833 274.5,109.167 272.5,108.5C 274.167,108.5 275.833,108.5 277.5,108.5C 277.5,100.833 277.5,93.1667 277.5,85.5C 275.833,85.5 274.167,85.5 272.5,85.5 Z"/></g>
<g><path style="opacity:1" fill="#5397c5" d="M 138.5,89.5 C 135.5,89.5 132.5,89.5 129.5,89.5C 129.5,91.5 129.5,93.5 129.5,95.5C 132.167,95.5 134.833,95.5 137.5,95.5C 134.713,96.4767 131.713,96.81 128.5,96.5C 128.5,93.8333 128.5,91.1667 128.5,88.5C 132.042,88.1872 135.375,88.5206 138.5,89.5 Z"/></g>
<g><path style="opacity:1" fill="#81b5d6" d="M 231.5,85.5 C 229.167,85.5 226.833,85.5 224.5,85.5C 224.5,93.1667 224.5,100.833 224.5,108.5C 223.508,101.018 223.175,93.3516 223.5,85.5C 226.167,84.1667 228.833,84.1667 231.5,85.5 Z"/></g>
<g><path style="opacity:1" fill="#2d80b9" d="M 247.5,107.5 C 247.5,108.167 247.167,108.5 246.5,108.5C 244.5,108.5 242.5,108.5 240.5,108.5C 240.167,107.833 239.833,107.167 239.5,106.5C 241.764,107.219 244.097,107.552 246.5,107.5C 246.5,100.5 246.5,93.5 246.5,86.5C 245.5,86.5 244.5,86.5 243.5,86.5C 243.666,91.5111 243.499,96.5111 243,101.5C 241.539,102.883 240.706,102.549 240.5,100.5C 242.442,95.9443 243.108,90.9443 242.5,85.5C 244.167,85.5 245.833,85.5 247.5,85.5C 247.5,92.8333 247.5,100.167 247.5,107.5 Z"/></g>
<g><path style="opacity:1" fill="#2f86be" d="M 272.5,85.5 C 274.167,85.5 275.833,85.5 277.5,85.5C 277.5,93.1667 277.5,100.833 277.5,108.5C 275.833,108.5 274.167,108.5 272.5,108.5C 272.5,108.167 272.5,107.833 272.5,107.5C 272.5,100.167 272.5,92.8333 272.5,85.5 Z"/></g>
<g><path style="opacity:1" fill="#5197c7" d="M 103.5,89.5 C 103.5,91.5 103.5,93.5 103.5,95.5C 106.5,95.5 109.5,95.5 112.5,95.5C 112.5,96.1667 112.5,96.8333 112.5,97.5C 109.167,97.5 105.833,97.5 102.5,97.5C 102.194,94.6146 102.527,91.9479 103.5,89.5 Z"/></g>
<g><path style="opacity:1" fill="#9ec2db" d="M 146.5,94.5 C 146.912,96.9726 145.912,98.3059 143.5,98.5C 144.512,97.1283 145.512,95.795 146.5,94.5 Z"/></g>
<g><path style="opacity:1" fill="#4f93c0" d="M 204.5,86.5 C 202.496,89.5213 201.162,92.8547 200.5,96.5C 201.095,99.1401 201.428,101.807 201.5,104.5C 200.662,104.158 200.328,103.492 200.5,102.5C 199.167,98.5 199.167,94.5 200.5,90.5C 201.5,88.8333 202.833,87.5 204.5,86.5 Z"/></g>
<g><path style="opacity:1" fill="#a0c6df" d="M 231.5,94.5 C 230.833,99.1667 230.167,103.833 229.5,108.5C 229.173,103.456 229.506,98.456 230.5,93.5C 231.107,93.6236 231.44,93.9569 231.5,94.5 Z"/></g>
<g><path style="opacity:1" fill="#9bc7de" d="M 232.5,96.5 C 233.906,96.9731 234.573,97.9731 234.5,99.5C 233.094,99.0269 232.427,98.0269 232.5,96.5 Z"/></g>
<g><path style="opacity:1" fill="#d7ecf3" d="M 292.5,93.5 C 292.5,93.8333 292.5,94.1667 292.5,94.5C 294.186,97.5367 293.186,98.87 289.5,98.5C 289.5,97.5 289.5,96.5 289.5,95.5C 289.5,95.1667 289.5,94.8333 289.5,94.5C 290.391,93.8902 291.391,93.5569 292.5,93.5 Z"/></g>
<g><path style="opacity:1" fill="#9cc4de" d="M 298.5,95.5 C 299.906,95.9731 300.573,96.9731 300.5,98.5C 299.094,98.0269 298.427,97.0269 298.5,95.5 Z"/></g>
<g><path style="opacity:1" fill="#7eb0d1" d="M 220.5,98.5 C 215.906,98.8651 211.573,99.8651 207.5,101.5C 206.596,100.791 206.263,99.791 206.5,98.5C 211.167,98.5 215.833,98.5 220.5,98.5 Z"/></g>
<g><path style="opacity:1" fill="#5fa2cb" d="M 292.5,94.5 C 294.213,95.6354 294.88,97.302 294.5,99.5C 292.5,99.5 290.5,99.5 288.5,99.5C 288.232,97.901 288.566,96.5676 289.5,95.5C 289.5,96.5 289.5,97.5 289.5,98.5C 293.186,98.87 294.186,97.5367 292.5,94.5 Z"/></g>
<g><path style="opacity:1" fill="#ddebc7" d="M 57.5,95.5 C 57.5,97.8333 57.5,100.167 57.5,102.5C 55.0401,99.9889 55.0401,97.6555 57.5,95.5 Z"/></g>
<g><path style="opacity:1" fill="#5e9fca" d="M 114.5,99.5 C 115.167,99.5 115.833,99.5 116.5,99.5C 116.5,99.8333 116.5,100.167 116.5,100.5C 116.167,100.5 115.833,100.5 115.5,100.5C 111.5,100.5 107.5,100.5 103.5,100.5C 103.5,103.167 103.5,105.833 103.5,108.5C 103.167,108.5 102.833,108.5 102.5,108.5C 100.901,108.768 99.5676,108.434 98.5,107.5C 98.8333,107.5 99.1667,107.5 99.5,107.5C 100.5,107.5 101.5,107.5 102.5,107.5C 102.5,104.833 102.5,102.167 102.5,99.5C 106.5,99.5 110.5,99.5 114.5,99.5 Z"/></g>
<g><path style="opacity:1" fill="#b7d1e1" d="M 121.5,95.5 C 120.833,98.1667 119.167,99.8333 116.5,100.5C 116.5,100.167 116.5,99.8333 116.5,99.5C 118.167,98.1667 119.833,96.8333 121.5,95.5 Z"/></g>
<g><path style="opacity:1" fill="#2a7fb7" d="M 142.5,85.5 C 142.5,85.8333 142.5,86.1667 142.5,86.5C 136.5,86.5 130.5,86.5 124.5,86.5C 124.5,93.5 124.5,100.5 124.5,107.5C 125.5,107.5 126.5,107.5 127.5,107.5C 125.495,99.5004 128.161,96.8337 135.5,99.5C 133.265,99.2053 131.265,99.5386 129.5,100.5C 128.527,102.948 128.194,105.615 128.5,108.5C 126.833,108.5 125.167,108.5 123.5,108.5C 123.5,108.167 123.5,107.833 123.5,107.5C 123.5,100.167 123.5,92.8333 123.5,85.5C 129.833,85.5 136.167,85.5 142.5,85.5 Z"/></g>
<g><path style="opacity:1" fill="#a5cae3" d="M 143.5,98.5 C 143.5,99.5 143.5,100.5 143.5,101.5C 141.015,100.26 141.015,99.2601 143.5,98.5 Z"/></g>
<g><path style="opacity:1" fill="#e2edf4" d="M 220.5,85.5 C 220.5,85.1667 220.5,84.8333 220.5,84.5C 221.609,84.5569 222.609,84.8902 223.5,85.5C 223.175,93.3516 223.508,101.018 224.5,108.5C 226.167,108.5 227.833,108.5 229.5,108.5C 230.167,103.833 230.833,99.1667 231.5,94.5C 231.833,95.1667 232.167,95.8333 232.5,96.5C 232.427,98.0269 233.094,99.0269 234.5,99.5C 234.427,101.027 235.094,102.027 236.5,102.5C 237.167,103.167 237.833,103.833 238.5,104.5C 239.338,104.842 239.672,105.508 239.5,106.5C 239.833,107.167 240.167,107.833 240.5,108.5C 238.902,110.857 237.902,113.523 237.5,116.5C 235.777,117.807 233.943,117.807 232,116.5C 231.503,114.19 231.337,111.857 231.5,109.5C 227.833,109.5 224.167,109.5 220.5,109.5C 220.5,109.167 220.5,108.833 220.5,108.5C 221.833,107.167 221.833,105.833 220.5,104.5C 216.445,104.824 212.445,104.491 208.5,103.5C 208.137,102.817 207.804,102.15 207.5,101.5C 211.573,99.8651 215.906,98.8651 220.5,98.5C 221.833,97.5 221.833,96.5 220.5,95.5C 216.167,94.8333 211.833,94.1667 207.5,93.5C 212.5,93.5 217.5,93.5 222.5,93.5C 222.5,92.5 222.5,91.5 222.5,90.5C 217.833,90.5 213.167,90.5 208.5,90.5C 208.5,90.1667 208.5,89.8333 208.5,89.5C 212.833,89.5 217.167,89.5 221.5,89.5C 221.768,87.901 221.434,86.5676 220.5,85.5 Z"/></g>
<g><path style="opacity:1" fill="#89b9d6" d="M 283.5,97.5 C 283.573,99.0269 282.906,100.027 281.5,100.5C 281.427,98.9731 282.094,97.9731 283.5,97.5 Z"/></g>
<g><path style="opacity:1" fill="#94c355" d="M 64.5,93.5 C 65.1667,93.5 65.8333,93.5 66.5,93.5C 66.5,94.1667 66.8333,94.5 67.5,94.5C 69.0146,97.737 68.6813,100.737 66.5,103.5C 63.3728,104.96 60.3728,104.627 57.5,102.5C 57.5,100.167 57.5,97.8333 57.5,95.5C 59.5909,94.1346 61.9242,93.4679 64.5,93.5 Z"/></g>
<g><path style="opacity:1" fill="#e8f3d9" d="M 64.5,96.5 C 65.5983,97.6009 65.765,98.9343 65,100.5C 63.3845,101.801 61.8845,101.801 60.5,100.5C 60.1667,97.5 61.5,96.1667 64.5,96.5 Z"/></g>
<g><path style="opacity:1" fill="#abce7e" d="M 64.5,96.5 C 61.5,96.1667 60.1667,97.5 60.5,100.5C 59.4017,99.3991 59.235,98.0657 60,96.5C 61.6155,95.1991 63.1155,95.1991 64.5,96.5 Z"/></g>
<g><path style="opacity:1" fill="#5b9dc9" d="M 82.5,95.5 C 82.2876,98.7124 80.6209,100.712 77.5,101.5C 79.1964,99.4752 80.863,97.4752 82.5,95.5 Z"/></g>
<g><path style="opacity:1" fill="#cae2f0" d="M 115.5,100.5 C 112.038,101.482 108.371,101.815 104.5,101.5C 104.802,104.059 104.468,106.393 103.5,108.5C 103.5,105.833 103.5,103.167 103.5,100.5C 107.5,100.5 111.5,100.5 115.5,100.5 Z"/></g>
<g><path style="opacity:1" fill="#97c4dd" d="M 142.5,85.5 C 136.167,85.5 129.833,85.5 123.5,85.5C 123.5,92.8333 123.5,100.167 123.5,107.5C 122.508,100.018 122.175,92.3516 122.5,84.5C 129.354,84.176 136.021,84.5093 142.5,85.5 Z"/></g>
<g><path style="opacity:1" fill="#cae4ef" d="M 200.5,90.5 C 199.167,94.5 199.167,98.5 200.5,102.5C 199.609,101.89 198.609,101.557 197.5,101.5C 197.5,98.1667 197.5,94.8333 197.5,91.5C 198.609,91.4431 199.609,91.1098 200.5,90.5 Z"/></g>
<g><path style="opacity:1" fill="#0e71b9" d="M 86.5,81.5 C 88.8333,83.1667 90.8333,85.1667 92.5,87.5C 92.3219,90.3219 91.6552,92.9885 90.5,95.5C 91.2457,99.1317 91.579,102.798 91.5,106.5C 87.8581,107.08 84.1914,107.58 80.5,108C 79.4178,109.33 78.7512,110.83 78.5,112.5C 76.2057,115.37 74.8723,118.703 74.5,122.5C 73.5987,123.29 72.9321,124.29 72.5,125.5C 71.8826,125.611 71.3826,125.944 71,126.5C 70.2489,120.116 70.4156,113.783 71.5,107.5C 73.1939,105.139 75.1939,103.139 77.5,101.5C 80.6209,100.712 82.2876,98.7124 82.5,95.5C 83.404,94.791 83.7373,93.791 83.5,92.5C 84.1174,92.3893 84.6174,92.056 85,91.5C 85.1787,87.9748 85.6787,84.6414 86.5,81.5 Z"/></g>
<g><path style="opacity:1" fill="#d2e5f1" d="M 94.5,91.5 C 93.9254,96.9687 93.2588,102.302 92.5,107.5C 92.6952,103.453 92.3619,99.4526 91.5,95.5C 91.7538,93.5828 92.7538,92.2495 94.5,91.5 Z"/></g>
<g><path style="opacity:1" fill="#96c3db" d="M 234.5,99.5 C 235.906,99.9731 236.573,100.973 236.5,102.5C 235.094,102.027 234.427,101.027 234.5,99.5 Z"/></g>
<g><path style="opacity:1" fill="#016cb5" d="M 273.5,86.5 C 274.5,86.5 275.5,86.5 276.5,86.5C 276.5,93.5 276.5,100.5 276.5,107.5C 275.5,107.5 274.5,107.5 273.5,107.5C 273.5,100.5 273.5,93.5 273.5,86.5 Z"/></g>
<g><path style="opacity:1" fill="#7cb1d2" d="M 77.5,101.5 C 75.1939,103.139 73.1939,105.139 71.5,107.5C 71.1667,107.5 70.8333,107.5 70.5,107.5C 71.5778,104.092 73.9111,102.092 77.5,101.5 Z"/></g>
<g><path style="opacity:1" fill="#66a5cd" d="M 286.5,103.5 C 289.64,102.359 292.973,102.192 296.5,103C 297.252,103.671 297.586,104.504 297.5,105.5C 294.154,103.676 290.487,103.01 286.5,103.5 Z"/></g>
<g><path style="opacity:1" fill="#0c70b7" d="M 180.5,89.5 C 180.5,94.5 180.5,99.5 180.5,104.5C 183.385,104.806 186.052,104.473 188.5,103.5C 189.5,102.833 190.5,102.167 191.5,101.5C 194.4,87.9829 196.066,88.3162 196.5,102.5C 195.11,103.899 194.11,105.566 193.5,107.5C 192.833,107.5 192.167,107.5 191.5,107.5C 186.5,107.5 181.5,107.5 176.5,107.5C 176.5,103.167 176.5,98.8333 176.5,94.5C 177.473,92.0521 177.806,89.3854 177.5,86.5C 181.555,86.1758 185.555,86.5091 189.5,87.5C 186.358,88.1674 183.358,88.834 180.5,89.5 Z"/></g>
<g><path style="opacity:1" fill="#80b1d0" d="M 196.5,102.5 C 196.727,104.933 195.727,106.599 193.5,107.5C 194.11,105.566 195.11,103.899 196.5,102.5 Z"/></g>
<g><path style="opacity:1" fill="#1974b7" d="M 155.5,101.5 C 157.845,104.075 160.845,105.075 164.5,104.5C 166.027,104.573 167.027,103.906 167.5,102.5C 167.5,96.8333 167.5,91.1667 167.5,85.5C 169.167,85.5 170.833,85.5 172.5,85.5C 172.5,91.8333 172.5,98.1667 172.5,104.5C 170.772,106.226 168.772,107.559 166.5,108.5C 162.131,108.533 157.798,108.2 153.5,107.5C 152.11,106.101 151.11,104.434 150.5,102.5C 150.5,96.8333 150.5,91.1667 150.5,85.5C 151.833,85.5 153.167,85.5 154.5,85.5C 154.179,91.0262 154.512,96.3595 155.5,101.5 Z"/></g>
<g><path style="opacity:1" fill="#5c9fc9" d="M 166.5,102.5 C 166.833,102.5 167.167,102.5 167.5,102.5C 167.027,103.906 166.027,104.573 164.5,104.5C 164.833,103.5 165.5,102.833 166.5,102.5 Z"/></g>
<g><path style="opacity:1" fill="#5b98c3" d="M 92.5,87.5 C 94.1765,88.1834 94.8432,89.5168 94.5,91.5C 92.7538,92.2495 91.7538,93.5828 91.5,95.5C 92.3619,99.4526 92.6952,103.453 92.5,107.5C 91.8333,107.833 91.1667,108.167 90.5,108.5C 87.4816,108.335 84.4816,108.502 81.5,109C 80.944,109.383 80.6107,109.883 80.5,110.5C 80.1667,111.5 79.5,112.167 78.5,112.5C 78.7512,110.83 79.4178,109.33 80.5,108C 84.1914,107.58 87.8581,107.08 91.5,106.5C 91.579,102.798 91.2457,99.1317 90.5,95.5C 91.6552,92.9885 92.3219,90.3219 92.5,87.5 Z"/></g>
<g><path style="opacity:1" fill="#5c9ec9" d="M 220.5,104.5 C 221.833,105.833 221.833,107.167 220.5,108.5C 215.833,108.5 211.167,108.5 206.5,108.5C 205.833,108.5 205.5,108.167 205.5,107.5C 210.5,107.5 215.5,107.5 220.5,107.5C 220.5,106.5 220.5,105.5 220.5,104.5 Z"/></g>
<g><path style="opacity:1" fill="#77aace" d="M 301.5,102.5 C 302.117,102.611 302.617,102.944 303,103.5C 303.495,105.473 303.662,107.473 303.5,109.5C 301.833,109.5 300.167,109.5 298.5,109.5C 298.167,108.833 297.833,108.167 297.5,107.5C 299.167,107.5 300.833,107.5 302.5,107.5C 302.371,105.784 302.038,104.117 301.5,102.5 Z"/></g>
<g><path style="opacity:1" fill="#9ec1d8" d="M 90.5,108.5 C 87.3162,109.323 83.9828,109.99 80.5,110.5C 80.6107,109.883 80.944,109.383 81.5,109C 84.4816,108.502 87.4816,108.335 90.5,108.5 Z"/></g>
<g><path style="opacity:1" fill="#8bb6d6" d="M 153.5,107.5 C 157.798,108.2 162.131,108.533 166.5,108.5C 166.5,108.833 166.5,109.167 166.5,109.5C 164.833,109.5 163.167,109.5 161.5,109.5C 160.5,109.5 159.5,109.5 158.5,109.5C 156.447,109.598 154.78,108.931 153.5,107.5 Z"/></g>
<g><path style="opacity:1" fill="#cdd9e5" d="M 172.5,104.5 C 172.489,106.017 171.823,107.184 170.5,108C 171.737,108.232 172.737,108.732 173.5,109.5C 171.708,109.366 170.042,109.699 168.5,110.5C 168.158,109.662 167.492,109.328 166.5,109.5C 166.5,109.167 166.5,108.833 166.5,108.5C 168.772,107.559 170.772,106.226 172.5,104.5 Z"/></g>
<g><path style="opacity:1" fill="#a7a5b9" d="M 108.5,109.5 C 111.797,109.329 112.131,109.995 109.5,111.5C 111.756,112.421 112.756,114.088 112.5,116.5C 111.127,116.657 109.793,116.49 108.5,116C 109.416,115.722 110.082,115.222 110.5,114.5C 109.791,113.596 108.791,113.263 107.5,113.5C 107.232,111.901 107.566,110.568 108.5,109.5 Z"/></g>
<g><path style="opacity:1" fill="#c1ccdb" d="M 139.5,106.5 C 142.057,108.976 144.391,108.976 146.5,106.5C 147.404,107.209 147.737,108.209 147.5,109.5C 146.167,109.5 144.833,109.5 143.5,109.5C 143.808,111.924 143.474,114.257 142.5,116.5C 141.702,116.043 141.369,115.376 141.5,114.5C 142.573,113.749 142.74,112.749 142,111.5C 140.708,112.791 139.542,112.791 138.5,111.5C 139.497,111.53 140.164,111.03 140.5,110C 140.011,108.862 139.678,107.695 139.5,106.5 Z"/></g>
<g><path style="opacity:1" fill="#a2a0b5" d="M 237.5,116.5 C 236.127,116.657 234.793,116.49 233.5,116C 234.308,115.692 234.975,115.192 235.5,114.5C 233.995,113.158 233.328,111.492 233.5,109.5C 236.797,109.329 237.131,109.995 234.5,111.5C 236.756,112.421 237.756,114.088 237.5,116.5 Z"/></g>
<g><path style="opacity:1" fill="#dfdee5" d="M 108.5,109.5 C 109.884,108.199 111.384,108.199 113,109.5C 113.497,112.146 113.664,114.813 113.5,117.5C 111.5,117.5 109.5,117.5 107.5,117.5C 107.5,116.5 107.5,115.5 107.5,114.5C 108.5,114.5 109.5,114.5 110.5,114.5C 110.082,115.222 109.416,115.722 108.5,116C 109.793,116.49 111.127,116.657 112.5,116.5C 112.756,114.088 111.756,112.421 109.5,111.5C 112.131,109.995 111.797,109.329 108.5,109.5 Z"/></g>
<g><path style="opacity:1" fill="#d6d8e2" d="M 191.5,107.5 C 192.167,107.5 192.833,107.5 193.5,107.5C 192.597,110.391 192.264,113.391 192.5,116.5C 191.5,116.5 190.5,116.5 189.5,116.5C 189.5,114.167 189.5,111.833 189.5,109.5C 188.5,109.5 187.5,109.5 186.5,109.5C 186.5,112.167 186.5,114.833 186.5,117.5C 183.612,118.01 181.279,117.344 179.5,115.5C 181.379,116.341 183.379,116.675 185.5,116.5C 185.5,115.167 185.5,113.833 185.5,112.5C 182.203,112.329 181.869,112.995 184.5,114.5C 183.675,115.386 182.675,115.719 181.5,115.5C 181.5,113.833 181.5,112.167 181.5,110.5C 183.179,110.715 184.179,110.048 184.5,108.5C 187.059,108.802 189.393,108.468 191.5,107.5 Z"/></g>
<g><path style="opacity:1" fill="#aaa8bb" d="M 117.5,110.5 C 118.975,111.262 120.309,111.595 121.5,111.5C 119.775,117.889 118.441,117.555 117.5,110.5 Z"/></g>
<g><path style="opacity:1" fill="#c7c6d2" d="M 158.5,109.5 C 159.5,109.5 160.5,109.5 161.5,109.5C 161.5,111.167 161.5,112.833 161.5,114.5C 162.5,114.5 163.5,114.5 164.5,114.5C 164.5,115.5 164.5,116.5 164.5,117.5C 162.533,117.739 160.699,117.406 159,116.5C 158.503,114.19 158.337,111.857 158.5,109.5 Z"/></g>
<g><path style="opacity:1" fill="#3082ba" d="M 70.5,107.5 C 70.8333,107.5 71.1667,107.5 71.5,107.5C 70.4156,113.783 70.2489,120.116 71,126.5C 71.3826,125.944 71.8826,125.611 72.5,125.5C 72.5,126.5 72.5,127.5 72.5,128.5C 71.8902,129.391 71.5569,130.391 71.5,131.5C 69.5437,125.588 68.8771,119.255 69.5,112.5C 69.5,111.167 69.5,109.833 69.5,108.5C 69.5,107.833 69.8333,107.5 70.5,107.5 Z"/></g>
<g><path style="opacity:1" fill="#908da6" d="M 138.5,111.5 C 139.542,112.791 140.708,112.791 142,111.5C 142.74,112.749 142.573,113.749 141.5,114.5C 140.5,113.167 139.5,113.167 138.5,114.5C 137.167,113.5 137.167,112.5 138.5,111.5 Z"/></g>
<g><path style="opacity:1" fill="#b0b5c8" d="M 175.5,108.5 C 178.5,108.5 181.5,108.5 184.5,108.5C 184.179,110.048 183.179,110.715 181.5,110.5C 181.5,112.167 181.5,113.833 181.5,115.5C 182.675,115.719 183.675,115.386 184.5,114.5C 181.869,112.995 182.203,112.329 185.5,112.5C 185.5,113.833 185.5,115.167 185.5,116.5C 183.379,116.675 181.379,116.341 179.5,115.5C 178.032,113.389 178.365,111.556 180.5,110C 178.618,109.802 176.952,109.302 175.5,108.5 Z"/></g>
<g><path style="opacity:1" fill="#9b9cb0" d="M 240.5,108.5 C 242.5,108.5 244.5,108.5 246.5,108.5C 245.993,109.859 244.993,110.859 243.5,111.5C 244.376,112.251 245.376,112.751 246.5,113C 242.5,114 242.5,115 246.5,116C 245.207,116.49 243.873,116.657 242.5,116.5C 242.868,113.467 242.202,110.8 240.5,108.5 Z"/></g>
<g><path style="opacity:1" fill="#b5b3c5" d="M 252.5,109.5 C 254.292,109.366 255.958,109.699 257.5,110.5C 257.799,112.604 257.466,114.604 256.5,116.5C 254.929,115.691 253.262,115.357 251.5,115.5C 251.325,113.379 251.659,111.379 252.5,109.5 Z"/></g>
<g><path style="opacity:1" fill="#bbc2d1" d="M 97.5,84.5 C 97.1746,92.3516 97.508,100.018 98.5,107.5C 99.5676,108.434 100.901,108.768 102.5,108.5C 101.472,109.787 101.805,110.954 103.5,112C 102.177,114.999 99.8434,116.499 96.5,116.5C 96.1722,105.654 96.5056,94.9869 97.5,84.5 Z"/></g>
<g><path style="opacity:1" fill="#c2c1ce" d="M 138.5,111.5 C 137.167,112.5 137.167,113.5 138.5,114.5C 138.631,115.376 138.298,116.043 137.5,116.5C 136.167,114.167 136.167,111.833 137.5,109.5C 138.298,109.957 138.631,110.624 138.5,111.5 Z"/></g>
<g><path style="opacity:1" fill="#b8b6c7" d="M 197.5,108.5 C 198.833,108.5 200.167,108.5 201.5,108.5C 201.5,109.5 201.5,110.5 201.5,111.5C 200.5,111.5 199.5,111.5 198.5,111.5C 198.5,112.833 198.5,114.167 198.5,115.5C 199.552,115.351 200.552,115.517 201.5,116C 198.138,117.293 196.138,116.293 195.5,113C 196.074,111.393 196.74,109.893 197.5,108.5 Z"/></g>
<g><path style="opacity:1" fill="#afb1c4" d="M 206.5,108.5 C 211.167,108.5 215.833,108.5 220.5,108.5C 220.5,108.833 220.5,109.167 220.5,109.5C 217.102,109.18 213.768,109.513 210.5,110.5C 211.782,112.179 212.782,114.013 213.5,116C 211.126,115.598 208.793,115.764 206.5,116.5C 205.792,114.108 206.458,111.941 208.5,110C 207.584,109.722 206.918,109.222 206.5,108.5 Z"/></g>
<g><path style="opacity:1" fill="#a29fb4" d="M 216.5,110.5 C 217.29,111.609 217.79,112.942 218,114.5C 221.054,116.123 220.554,116.79 216.5,116.5C 216.5,114.5 216.5,112.5 216.5,110.5 Z"/></g>
<g><path style="opacity:1" fill="#dddee6" d="M 247.5,107.5 C 247.833,107.5 248.167,107.5 248.5,107.5C 248.128,110.617 248.128,113.617 248.5,116.5C 246.364,117.793 244.364,117.793 242.5,116.5C 243.873,116.657 245.207,116.49 246.5,116C 242.5,115 242.5,114 246.5,113C 245.376,112.751 244.376,112.251 243.5,111.5C 244.993,110.859 245.993,109.859 246.5,108.5C 247.167,108.5 247.5,108.167 247.5,107.5 Z"/></g>
<g><path style="opacity:1" fill="#cdcbd7" d="M 271.5,110.5 C 272.5,110.5 273.5,110.5 274.5,110.5C 274.5,112.5 274.5,114.5 274.5,116.5C 273.5,116.5 272.5,116.5 271.5,116.5C 271.5,114.5 271.5,112.5 271.5,110.5 Z"/></g>
<g><path style="opacity:1" fill="#b3b1c1" d="M 287.5,109.5 C 289.199,109.34 290.866,109.506 292.5,110C 291.833,110.333 291.167,110.667 290.5,111C 291.455,112.717 292.455,114.384 293.5,116C 291.527,116.495 289.527,116.662 287.5,116.5C 287.5,114.167 287.5,111.833 287.5,109.5 Z"/></g>
<g><path style="opacity:1" fill="#bec0cf" d="M 129.5,100.5 C 128.989,104.03 129.656,107.196 131.5,110C 127.313,112.8 127.646,114.3 132.5,114.5C 132.5,115.5 132.5,116.5 132.5,117.5C 129.143,117.894 126.81,116.561 125.5,113.5C 125.529,111.971 126.196,110.804 127.5,110C 125.942,109.79 124.609,109.29 123.5,108.5C 125.167,108.5 126.833,108.5 128.5,108.5C 128.194,105.615 128.527,102.948 129.5,100.5 Z"/></g>
<g><path style="opacity:1" fill="#c0becc" d="M 148.5,109.5 C 154.209,108.867 156.209,111.2 154.5,116.5C 148.133,118.133 146.133,115.799 148.5,109.5 Z"/></g>
<g><path style="opacity:1" fill="#f6f6f9" d="M 149.5,111.5 C 154.833,112.5 154.833,113.5 149.5,114.5C 149.5,113.5 149.5,112.5 149.5,111.5 Z"/></g>
<g><path style="opacity:1" fill="#b9b6c6" d="M 173.5,109.5 C 176.043,111.682 176.043,113.848 173.5,116C 167.986,117.327 166.319,115.493 168.5,110.5C 170.042,109.699 171.708,109.366 173.5,109.5 Z"/></g>
<g><path style="opacity:1" fill="#f6f5f9" d="M 170.5,111.5 C 171.995,111.415 172.995,112.081 173.5,113.5C 172.167,114.833 170.833,114.833 169.5,113.5C 169.863,112.817 170.196,112.15 170.5,111.5 Z"/></g>
<g><path style="opacity:1" fill="#a4a1b6" d="M 263.5,113.5 C 267.961,109.535 268.628,110.368 265.5,116C 263.939,116.188 263.272,115.355 263.5,113.5 Z"/></g>
<g><path style="opacity:1" fill="#bcbac9" d="M 282.5,109.5 C 278.454,112.464 278.787,114.131 283.5,114.5C 283.5,115.5 283.5,116.5 283.5,117.5C 278.135,117.764 276.468,115.431 278.5,110.5C 279.708,109.766 281.041,109.433 282.5,109.5 Z"/></g>
<g><path style="opacity:1" fill="#b7b6c5" d="M 298.5,109.5 C 300.167,109.5 301.833,109.5 303.5,109.5C 303.5,111.833 303.5,114.167 303.5,116.5C 301.833,116.5 300.167,116.5 298.5,116.5C 298.5,114.167 298.5,111.833 298.5,109.5 Z"/></g>
<g><path style="opacity:1" fill="#b1cddd" d="M 69.5,108.5 C 69.5,109.833 69.5,111.167 69.5,112.5C 68.1914,113.624 67.5247,115.124 67.5,117C 68.3102,120.792 68.6436,124.625 68.5,128.5C 67.5184,124.694 66.8517,120.694 66.5,116.5C 66.4208,113.342 67.4208,110.675 69.5,108.5 Z"/></g>
<g><path style="opacity:1" fill="#86b5d1" d="M 69.5,112.5 C 68.8771,119.255 69.5437,125.588 71.5,131.5C 71.1788,133.048 70.1788,133.715 68.5,133.5C 68.5,131.833 68.5,130.167 68.5,128.5C 68.6436,124.625 68.3102,120.792 67.5,117C 67.5247,115.124 68.1914,113.624 69.5,112.5 Z"/></g>
<g><path style="opacity:1" fill="#9dc4de" d="M 74.5,122.5 C 74.7406,124.898 74.0739,126.898 72.5,128.5C 72.5,127.5 72.5,126.5 72.5,125.5C 72.9321,124.29 73.5987,123.29 74.5,122.5 Z"/></g>
</svg>
